<svg viewBox="0 0 228 228" fill="none" xmlns="http://www.w3.org/2000/svg"><path d="M153.652 78.797c8.706 0 18.005-2.817 27.66-8.382l17.839-10.276a7.172 7.172 0 003.416-4.711c.427-1.99-.047-4.073-1.257-5.707C183.4 25.5 155.977 9.706 126.134 6.391a9.196 9.196 0 00-.806-.047c-3.938 0-7.14 3.196-7.14 7.103V34c0 27.206 13.924 44.775 35.488 44.775l-.024.023zM102.696 6.344c-.261 0-.546 0-.806.047-29.867 3.315-57.266 19.108-75.2 43.33a7.2 7.2 0 00-1.257 5.707c.403 1.989 1.66 3.693 3.416 4.711l17.84 10.276c9.654 5.565 18.953 8.382 27.66 8.382 10.508 0 19.428-4.167 25.761-12.028 6.382-7.908 9.726-19.25 9.726-32.746V13.447c0-3.93-3.202-7.103-7.14-7.103zM68.3 114.003c0-13.899-9.156-26.827-25.762-36.393l-17.863-10.3a7.208 7.208 0 00-3.558-.947 7.137 7.137 0 00-6.547 4.286c-6.026 13.733-9.062 28.318-9.062 43.354 0 15.035 3.06 29.644 9.062 43.354a7.138 7.138 0 006.547 4.285 7.27 7.27 0 003.558-.947l17.863-10.3C59.144 140.83 68.3 127.902 68.3 114.003zM74.372 149.211c-8.706 0-18.005 2.818-27.66 8.382l-17.84 10.276a7.17 7.17 0 00-3.415 4.712 7.199 7.199 0 001.257 5.706c17.934 24.222 45.333 40.015 75.199 43.33.261.024.546.048.807.048a7.138 7.138 0 005.029-2.06 7.03 7.03 0 002.111-5.067v-20.553c0-27.205-13.925-44.774-35.488-44.774zM199.175 167.869l-17.839-10.276c-9.655-5.564-18.954-8.382-27.66-8.382-21.564 0-35.488 17.569-35.488 44.774v20.553c0 3.93 3.202 7.103 7.14 7.103.261 0 .545 0 .806-.047 29.867-3.315 57.266-19.108 75.2-43.331a7.203 7.203 0 001.257-5.706c-.404-1.989-1.661-3.694-3.416-4.712v.024z" fill="#177C5E"/><path opacity=".3" d="M213.434 70.625a7.117 7.117 0 00-6.548-4.262 7.275 7.275 0 00-3.558.947l-17.863 10.3c-16.605 9.566-25.762 22.494-25.762 36.393 0 13.899 9.157 26.827 25.762 36.392l17.863 10.3a7.203 7.203 0 003.558.947 7.139 7.139 0 006.548-4.285c6.025-13.733 9.062-28.319 9.062-43.354 0-15.036-3.061-29.645-9.062-43.354v-.024z" fill="#177C5E"/></svg>
